<svg xmlns="http://www.w3.org/2000/svg" width="19.845" height="17.194" viewBox="0 0 19.845 17.194">
  <g id="그룹_17282" data-name="그룹 17282" transform="translate(0.75 0.75)">
    <g id="그룹_3815" data-name="그룹 3815">
      <path id="패스_648" data-name="패스 648" d="M19.054,16.537a4.96,4.96,0,0,0-4.939-4.982c-1.59,0-3.095,1.254-4.235,2.769.12-.184.1-.166,0,0a5.274,5.274,0,0,0-4.232-2.769,4.989,4.989,0,0,0-3.38,8.612h0l7.071,6.825a.7.7,0,0,0,1.055.033L17.5,20.167h0a4.985,4.985,0,0,0,1.558-3.63" transform="translate(-0.709 -11.555)" fill="none" stroke="#0077ed" stroke-linecap="round" stroke-linejoin="round" stroke-miterlimit="10" stroke-width="1.5"/>
    </g>
  </g>
</svg>
