<svg xmlns="http://www.w3.org/2000/svg" width="16.211" height="16.171" viewBox="0 0 16.211 16.171">
  <path id="패스_4862" data-name="패스 4862" d="M-4671.633,1441.713l-3.706-3.706a6.655,6.655,0,0,0,1.726-4.47,6.7,6.7,0,0,0-6.694-6.694,6.7,6.7,0,0,0-6.693,6.694,6.7,6.7,0,0,0,6.693,6.694,6.664,6.664,0,0,0,4.472-1.726l3.7,3.706a.353.353,0,0,0,.25.1.351.351,0,0,0,.249-.1A.354.354,0,0,0-4671.633,1441.713Zm-14.662-8.176a6,6,0,0,1,5.987-5.989,6,6,0,0,1,5.989,5.989,5.973,5.973,0,0,1-1.753,4.231h0l0,0a5.962,5.962,0,0,1-4.229,1.754A6,6,0,0,1-4686.294,1433.538Z" transform="translate(4687.35 -1426.494)" fill="#677294" stroke="#677294" stroke-width="0.7"/>
</svg>
