<svg xmlns="http://www.w3.org/2000/svg" width="22" height="22">
    <g data-name="필터초기화">
        <path data-name="사각형 4559" style="fill:none" d="M0 0h22v22H0z"/>
    </g>
    <path data-name="패스 5748" d="M324.1 153.873a6.021 6.021 0 0 0-4.146 1.68v-1.236a.444.444 0 1 0-.887 0v2.418a.439.439 0 0 0 .2.362l.027.013a.383.383 0 0 0 .1.038.421.421 0 0 0 .073.016l2.456.006a.443.443 0 0 0 0-.887h-1.462a5.1 5.1 0 1 1-1.476 3.583.443.443 0 0 0-.886 0 6 6 0 1 0 6-5.993z" transform="translate(-313.097 -148.951)" style="fill:#878787"/>
</svg>
