<svg xmlns="http://www.w3.org/2000/svg" width="12.785" height="17.071" viewBox="0 0 12.785 17.071">
  <g id="그룹_16640" data-name="그룹 16640" transform="translate(0.5 0.5)">
    <g id="pin">
      <path id="패스_4828" data-name="패스 4828" d="M-4502.043,1121.263c0,4.252-5.894,10.179-5.894,10.179s-5.9-5.9-5.892-10.179a5.892,5.892,0,0,1,5.892-5.893A5.893,5.893,0,0,1-4502.043,1121.263Z" transform="translate(4513.828 -1115.37)" fill="none" stroke="#0077ed" stroke-linejoin="round" stroke-miterlimit="10" stroke-width="1"/>
      <path id="패스_4829" data-name="패스 4829" d="M-4504.747,1121.543a2.677,2.677,0,0,1-2.679,2.678,2.678,2.678,0,0,1-2.678-2.678,2.678,2.678,0,0,1,2.678-2.679A2.678,2.678,0,0,1-4504.747,1121.543Z" transform="translate(4513.318 -1115.849)" fill="none" stroke="#0077ed" stroke-linejoin="round" stroke-miterlimit="10" stroke-width="1"/>
    </g>
  </g>
</svg>
