<svg xmlns="http://www.w3.org/2000/svg" width="10.09" height="13.396" viewBox="0 0 10.09 13.396">
  <g id="그룹_16640" data-name="그룹 16640" transform="translate(0.5 0.5)">
    <g id="pin">
      <path id="패스_4828" data-name="패스 4828" d="M-4504.738,1119.915c0,3.28-4.545,7.851-4.545,7.851s-4.551-4.552-4.544-7.851a4.545,4.545,0,0,1,4.544-4.545A4.545,4.545,0,0,1-4504.738,1119.915Z" transform="translate(4513.828 -1115.37)" fill="none" stroke="#878787" stroke-linejoin="round" stroke-miterlimit="10" stroke-width="1"/>
      <path id="패스_4829" data-name="패스 4829" d="M-4505.972,1120.93a2.065,2.065,0,0,1-2.066,2.065,2.065,2.065,0,0,1-2.065-2.065,2.065,2.065,0,0,1,2.065-2.066A2.065,2.065,0,0,1-4505.972,1120.93Z" transform="translate(4512.583 -1116.538)" fill="none" stroke="#878787" stroke-linejoin="round" stroke-miterlimit="10" stroke-width="1"/>
    </g>
  </g>
</svg>
