<svg width="17" height="16" viewBox="0 0 17 16" fill="none" xmlns="http://www.w3.org/2000/svg">
<path d="M8.31109 0.543477C8.37335 0.364365 8.62665 0.364365 8.68891 0.543477L10.4528 5.61789C10.4802 5.6969 10.554 5.75047 10.6376 5.75218L16.0087 5.86163C16.1983 5.8655 16.2766 6.10641 16.1255 6.22097L11.8445 9.46658C11.7778 9.51711 11.7497 9.6038 11.7739 9.68387L13.3296 14.8259C13.3845 15.0074 13.1795 15.1563 13.0239 15.048L8.61424 11.9795C8.54557 11.9317 8.45443 11.9317 8.38576 11.9795L3.97611 15.048C3.82046 15.1563 3.61553 15.0074 3.67044 14.8259L5.22611 9.68387C5.25033 9.6038 5.22217 9.51711 5.15551 9.46658L0.87452 6.22097C0.723413 6.10641 0.80169 5.8655 0.991274 5.86163L6.36239 5.75218C6.44602 5.75047 6.51976 5.6969 6.54722 5.61789L8.31109 0.543477Z" fill="#F93737"/>
</svg>
