<svg width="16" height="16" viewBox="0 0 16 16" fill="none" xmlns="http://www.w3.org/2000/svg">
<path d="M5.33341 7.33337V7.83337H5.65185L5.78651 7.54482L5.33341 7.33337ZM13.4153 8.13925L12.9258 8.03729L13.4153 8.13925ZM7.56801 2.54495L7.11492 2.33351L7.56801 2.54495ZM9.50008 6.23337V3.43322H8.50008V6.23337H9.50008ZM7.11492 2.33351L4.88032 7.12193L5.78651 7.54482L8.0211 2.7564L7.11492 2.33351ZM2.16675 8.83337V11.8334H3.16675V8.83337H2.16675ZM4.16675 13.8334H11.5202V12.8334H4.16675V13.8334ZM12.9887 12.6392L13.9048 8.2412L12.9258 8.03729L12.0097 12.4353L12.9887 12.6392ZM11.9468 5.83337H9.10008V6.83337H11.9468V5.83337ZM5.33341 6.83337H4.33341V7.83337H5.33341V6.83337ZM4.33341 6.83337H4.16675V7.83337H4.33341V6.83337ZM13.9048 8.2412C14.1635 6.99926 13.2154 5.83337 11.9468 5.83337V6.83337C12.5811 6.83337 13.0552 7.41632 12.9258 8.03729L13.9048 8.2412ZM11.5202 13.8334C12.2308 13.8334 12.8438 13.3349 12.9887 12.6392L12.0097 12.4353C11.9614 12.6672 11.7571 12.8334 11.5202 12.8334V13.8334ZM3.16675 8.83337C3.16675 8.28109 3.61446 7.83337 4.16675 7.83337V6.83337C3.06218 6.83337 2.16675 7.72881 2.16675 8.83337H3.16675ZM7.90023 1.83337C7.56353 1.83337 7.25731 2.0284 7.11492 2.33351L8.0211 2.7564C7.99919 2.80336 7.95205 2.83337 7.90023 2.83337V1.83337ZM9.50008 3.43322C9.50008 2.54965 8.7838 1.83337 7.90023 1.83337V2.83337C8.23152 2.83337 8.50008 3.10194 8.50008 3.43322H9.50008ZM2.16675 11.8334C2.16675 12.9379 3.06218 13.8334 4.16675 13.8334V12.8334C3.61446 12.8334 3.16675 12.3857 3.16675 11.8334H2.16675ZM8.50008 6.23337C8.50008 6.56474 8.76871 6.83337 9.10008 6.83337V5.83337C9.32099 5.83337 9.50008 6.01246 9.50008 6.23337H8.50008Z" fill="#F93737"/>
<path d="M5.3335 7L5.3335 13.3333" stroke="#F93737"/>
</svg>
